<svg width="18" height="16" viewBox="0 0 18 16" fill="none" xmlns="http://www.w3.org/2000/svg">
<path d="M17.7701 9.38522L16.6647 8.62844L16.9716 8.38259C17.2435 8.16487 17.2342 7.74585 16.9512 7.54106L6.81115 0.200367C6.3557 -0.12939 5.72331 -0.0436819 5.37146 0.395325L2.03896 4.55336C1.65998 5.02634 1.75564 5.72325 2.24825 6.07591L4.78161 7.88946L3.76454 9.33796C3.59621 9.57771 3.65482 9.90916 3.89493 10.0764L4.25747 10.3288C3.66593 10.901 2.87262 11.2247 2.04402 11.2247H1.05469V10.0794C1.05469 9.78744 0.81858 9.55075 0.527345 9.55075C0.23611 9.55075 0 9.78744 0 10.0794V15.4714C0 15.7633 0.23611 16 0.527345 16C0.81858 16 1.05469 15.7633 1.05469 15.4714V14.3965H1.76949C3.66238 14.3965 5.513 13.5985 6.82746 12.1181L7.35491 12.4853C7.59566 12.6529 7.92666 12.5914 8.09158 12.3487L9.04695 10.9428L11.2192 12.4978C11.4109 12.6351 11.6705 12.6283 11.8548 12.4807L12.6418 11.8503L14.6883 13.3268C14.9156 13.4909 15.231 13.4481 15.4067 13.2297L17.8831 10.1538C18.0762 9.91389 18.0243 9.55921 17.7701 9.38522ZM1.76949 13.3392H1.05469V12.282H2.04399C3.21666 12.282 4.33611 11.7946 5.1362 10.9406L5.95379 11.5098C4.88114 12.6637 3.35465 13.3392 1.76949 13.3392ZM7.51945 11.3126L4.9324 9.51149L5.63992 8.50386L8.18844 10.3283L7.51945 11.3126ZM11.5078 11.4053L2.86116 5.21552L6.19367 1.05748L15.7711 7.99085L11.5078 11.4053ZM14.8993 12.1764L13.4975 11.165L15.8028 9.31865L16.7036 9.93535L14.8993 12.1764Z" fill="#062E60"/>
</svg>
