<svg width="12" height="14" viewBox="0 0 12 14" fill="none" xmlns="http://www.w3.org/2000/svg">
<path d="M9.82161 8.63282H7.63971V6.56457C7.63971 6.35019 7.59723 6.1379 7.5147 5.93984C7.43217 5.74177 7.31121 5.56181 7.15872 5.41021C7.00622 5.25862 6.82519 5.13837 6.62595 5.05633C6.4267 4.97429 6.21316 4.93206 5.9975 4.93206C5.78184 4.93206 5.5683 4.97429 5.36906 5.05633C5.16982 5.13837 4.98878 5.25862 4.83629 5.41021C4.68379 5.56181 4.56283 5.74177 4.4803 5.93984C4.39777 6.1379 4.3553 6.35019 4.3553 6.56457V11.9692C4.35591 12.5076 4.57134 13.0238 4.95432 13.4045C5.33729 13.7852 5.85654 13.9994 6.39815 14H9.82161C10.3632 13.9994 10.8825 13.7852 11.2654 13.4045C11.6484 13.0238 11.8638 12.5076 11.8644 11.9692V10.6636C11.8638 10.1252 11.6484 9.60903 11.2654 9.22831C10.8825 8.8476 10.3632 8.63344 9.82161 8.63282ZM10.9837 11.9692C10.9834 12.2755 10.8609 12.5692 10.643 12.7858C10.4251 13.0023 10.1297 13.1242 9.82161 13.1245H6.39815C6.09003 13.1242 5.79464 13.0023 5.57676 12.7858C5.35889 12.5692 5.23633 12.2755 5.23598 11.9692V6.56457C5.23598 6.3638 5.31621 6.17125 5.45903 6.02928C5.60184 5.88731 5.79553 5.80755 5.9975 5.80755C6.19947 5.80755 6.39316 5.88731 6.53598 6.02928C6.67879 6.17125 6.75902 6.3638 6.75902 6.56457V9.07057C6.75902 9.18667 6.80541 9.29801 6.88799 9.3801C6.97057 9.46219 7.08258 9.50831 7.19936 9.50831H9.82161C10.1297 9.50866 10.4251 9.6305 10.643 9.84708C10.8609 10.0637 10.9834 10.3573 10.9837 10.6636V11.9692ZM3.18561 10.751C3.15259 10.7982 3.11054 10.8385 3.06186 10.8695C3.01318 10.9005 2.95883 10.9217 2.90191 10.9319C2.84499 10.942 2.78662 10.9409 2.73012 10.9286C2.67363 10.9164 2.62013 10.8931 2.57267 10.8603C1.66485 10.2322 0.949326 9.36695 0.505137 8.36002C0.0609476 7.35309 -0.094622 6.2437 0.0556123 5.1544C0.205847 4.06509 0.656038 3.03827 1.35646 2.18734C2.05688 1.33642 2.98027 0.694509 4.02463 0.332524C5.06899 -0.0294603 6.19368 -0.0974345 7.27447 0.13611C8.35525 0.369655 9.35007 0.89563 10.149 1.65594C10.948 2.41624 11.52 3.38129 11.8019 4.44447C12.0837 5.50766 12.0645 6.62761 11.7463 7.68062C11.7121 7.79108 11.6353 7.88359 11.5327 7.93797C11.4301 7.99234 11.31 8.00417 11.1986 7.97087C11.0873 7.93757 10.9937 7.86185 10.9383 7.76022C10.883 7.65859 10.8702 7.53931 10.903 7.42841C11.0469 6.95181 11.1197 6.45684 11.1193 5.95925C11.1193 3.15175 8.82168 0.867677 5.9975 0.867677C3.17333 0.867677 0.875691 3.15175 0.875691 5.95926C0.876207 6.78104 1.07652 7.59052 1.45958 8.31875C1.84264 9.04698 2.39708 9.67239 3.07569 10.1417C3.12316 10.1745 3.16365 10.2163 3.19487 10.2647C3.22608 10.3131 3.2474 10.3671 3.25761 10.4237C3.26782 10.4803 3.26671 10.5383 3.25436 10.5945C3.24201 10.6506 3.21864 10.7038 3.18561 10.751ZM3.43212 5.95926C3.43129 6.31466 3.50576 6.66625 3.65068 6.99115C3.67463 7.04379 3.68787 7.10061 3.68962 7.15836C3.69138 7.2161 3.68162 7.27362 3.6609 7.3276C3.64019 7.38157 3.60893 7.43094 3.56894 7.47285C3.52894 7.51476 3.481 7.54839 3.42786 7.57179C3.37473 7.5952 3.31747 7.60791 3.25937 7.60921C3.20127 7.61051 3.14349 7.60036 3.08935 7.57935C3.03522 7.55834 2.9858 7.52689 2.94395 7.48681C2.9021 7.44672 2.86865 7.3988 2.84552 7.3458C2.61368 6.8243 2.51644 6.25353 2.56262 5.68522C2.6088 5.11692 2.79694 4.56906 3.10997 4.09131C3.42301 3.61357 3.85104 3.22105 4.35526 2.94934C4.85949 2.67763 5.42396 2.53532 5.9975 2.53532C6.57104 2.53532 7.13551 2.67763 7.63974 2.94934C8.14397 3.22105 8.572 3.61357 8.88503 4.09131C9.19807 4.56906 9.3862 5.11692 9.43238 5.68522C9.47856 6.25353 9.38132 6.8243 9.14949 7.3458C9.12636 7.3988 9.0929 7.44672 9.05105 7.48681C9.00921 7.52689 8.95979 7.55834 8.90565 7.57935C8.85152 7.60036 8.79374 7.61051 8.73564 7.60921C8.67754 7.60791 8.62027 7.5952 8.56714 7.57179C8.51401 7.54839 8.46606 7.51476 8.42607 7.47285C8.38607 7.43094 8.35481 7.38157 8.3341 7.3276C8.31339 7.27362 8.30363 7.2161 8.30538 7.15836C8.30714 7.10061 8.32037 7.04379 8.34433 6.99115C8.49879 6.64392 8.57333 6.26679 8.5625 5.88727C8.55167 5.50775 8.45575 5.13543 8.28173 4.79746C8.10771 4.45949 7.85999 4.16441 7.55664 3.93374C7.25329 3.70307 6.90196 3.54263 6.52828 3.46413C6.15461 3.38564 5.76803 3.39106 5.39673 3.48001C5.02544 3.56896 4.6788 3.73919 4.38212 3.97828C4.08544 4.21737 3.84619 4.51929 3.68184 4.862C3.51748 5.20472 3.43217 5.57959 3.43212 5.95926Z" fill="#7D9CC2"/>
</svg>
