<svg width="8" height="7" viewBox="0 0 8 7" fill="none" xmlns="http://www.w3.org/2000/svg">
<path d="M-0.000220794 4.75016C-0.000220799 4.86067 0.0436778 4.96665 0.121818 5.04479C0.199958 5.12293 0.305939 5.16683 0.416446 5.16683L6.07895 5.16683L5.12061 6.121C5.04215 6.19946 4.99807 6.30587 4.99807 6.41683C4.99807 6.52779 5.04215 6.6342 5.12061 6.71266C5.19907 6.79112 5.30549 6.8352 5.41645 6.8352C5.5274 6.8352 5.63382 6.79112 5.71228 6.71266L7.37895 5.046C7.43676 4.9874 7.47593 4.913 7.4915 4.83217C7.50707 4.75134 7.49835 4.66771 7.46645 4.59183C7.43519 4.51574 7.3821 4.4506 7.31389 4.40463C7.24567 4.35866 7.16537 4.33391 7.08311 4.3335L0.416446 4.3335C0.305939 4.3335 0.199958 4.37739 0.121818 4.45553C0.0436778 4.53367 -0.000220789 4.63966 -0.000220794 4.75016Z" fill="#682905"/>
<path d="M0.120834 1.95424C0.0822167 1.99318 0.0516638 2.03935 0.0309285 2.09012C0.0101933 2.14088 -0.000317185 2.19524 -9.11399e-08 2.25008C-0.00140819 2.30473 0.0100078 2.35896 0.0333332 2.40841C0.0645918 2.4845 0.117674 2.54964 0.185891 2.59561C0.254108 2.64158 0.334406 2.66633 0.416667 2.66674L7.08333 2.66674C7.19384 2.66674 7.29982 2.62285 7.37796 2.54471C7.4561 2.46656 7.5 2.36058 7.5 2.25008C7.5 2.13957 7.4561 2.03359 7.37796 1.95545C7.29982 1.87731 7.19384 1.83341 7.08333 1.83341L1.42083 1.83341L2.37917 0.879244C2.41802 0.840394 2.44883 0.794273 2.46986 0.743514C2.49088 0.692755 2.5017 0.638352 2.5017 0.58341C2.5017 0.528469 2.49088 0.474066 2.46986 0.423307C2.44883 0.372547 2.41802 0.326426 2.37917 0.287577C2.34032 0.248728 2.2942 0.217911 2.24344 0.196886C2.19268 0.17586 2.13827 0.165039 2.08333 0.165039C1.97237 0.165039 1.86596 0.209117 1.7875 0.287577L0.120834 1.95424Z" fill="#682905"/>
</svg>
