<svg width="16" height="16" viewBox="0 0 16 16" fill="none" xmlns="http://www.w3.org/2000/svg">
<path d="M3.5569 0.928934L8.14204 5.51408L12.7272 0.928933C13.4137 0.242459 14.5266 0.242459 15.2131 0.928933C15.8996 1.61541 15.8996 2.72838 15.2131 3.41486L10.628 8L15.2131 12.5851C15.8996 13.2716 15.8996 14.3846 15.2131 15.0711C14.5266 15.7575 13.4137 15.7575 12.7272 15.0711L8.14204 10.4859L3.5569 15.0711C2.87043 15.7575 1.75745 15.7575 1.07098 15.0711C0.384503 14.3846 0.384504 13.2716 1.07098 12.5851L5.65612 8L1.07098 3.41486C0.384503 2.72838 0.384502 1.61541 1.07098 0.928934C1.75745 0.24246 2.87043 0.242461 3.5569 0.928934Z" fill="#ABB7C2"/>
</svg>
