<svg width="24" height="24" viewBox="0 0 24 24" fill="none" xmlns="http://www.w3.org/2000/svg">
<path d="M22.8677 0H0.92958C0.416173 0 0 0.4197 0 0.937457C0 4.71532 1.86195 8.22014 4.98065 10.313C7.02293 11.6835 8.24226 13.9787 8.24226 16.4526V19.3741C8.24226 20.2813 8.72258 21.1328 9.4958 21.5964L13.122 23.7709C14.1902 24.4112 15.555 23.6338 15.555 22.3751V16.4526C15.555 13.9787 16.7743 11.6835 18.8167 10.313C21.9353 8.22014 23.7973 4.71527 23.7973 0.937457C23.7973 0.4197 23.3811 0 22.8677 0ZM17.7866 8.75205C15.2251 10.471 13.6958 13.3497 13.6958 16.4526V21.9337L10.4459 19.9849C10.2334 19.8575 10.1014 19.6235 10.1014 19.3741V16.4527C10.1014 13.3498 8.57208 10.471 6.01053 8.7521C3.6711 7.18219 2.18014 4.65921 1.90527 1.87491H21.892C21.6171 4.65926 20.1261 7.18219 17.7866 8.75205Z" fill="#90A3B5"/>
</svg>
