<svg width="22" height="22" viewBox="0 0 22 22" fill="none" xmlns="http://www.w3.org/2000/svg">
<path d="M21.5258 10.2313L17.9925 8.46488L21.5258 6.69829C22.1577 6.3824 22.1584 5.47737 21.5258 5.16097L11.3844 0.0906376C11.1423 -0.0302125 10.8577 -0.0302125 10.6156 0.0906376L0.474243 5.16097C-0.157745 5.47703 -0.158417 6.38206 0.474243 6.69829L4.0075 8.46488L0.474243 10.2313C-0.157745 10.5474 -0.158417 11.4522 0.474243 11.7686L4.0075 13.5352L0.474243 15.3016C-0.157745 15.6177 -0.158417 16.5226 0.474243 16.839L10.6156 21.9093C10.8572 22.03 11.1418 22.0305 11.3844 21.9093L21.5258 16.839C22.1577 16.5229 22.1584 15.618 21.5258 15.3016L17.9925 13.5352L21.5258 11.7686C22.1577 11.4527 22.1584 10.5477 21.5258 10.2313ZM11 1.82014L19.2195 5.92972L11 10.0391L2.78046 5.92972L11 1.82014ZM19.2195 16.0704L11 20.1798L2.78046 16.0704L5.92932 14.496L10.6156 16.839C10.8573 16.9596 11.1418 16.9601 11.3844 16.839L16.0707 14.496L19.2195 16.0704ZM11 15.1095L2.78046 11.0001L5.92932 9.42564L10.6156 11.7686C10.8573 11.8893 11.1418 11.8898 11.3844 11.7686L16.0707 9.42564L19.2195 11.0001L11 15.1095Z" fill="#90A3B5"/>
</svg>
