<svg width="18" height="18" viewBox="0 0 18 18" fill="none" xmlns="http://www.w3.org/2000/svg">
<path d="M17.5037 4.83123L13.5542 1.02623C12.9258 0.42089 11.8487 0.42089 11.1306 0.939753L4.03933 6.73373C3.59051 6.47429 2.96217 6.47429 2.4236 6.73373L0.448814 7.68497C0.179526 7.77145 0 8.03088 0 8.29031C0 8.54975 -5.35028e-08 8.80918 0.269288 9.06861L4.03933 12.7007L1.25668 15.295C0.897628 15.6409 0.897628 16.1597 1.25668 16.5056C1.52597 16.7651 1.70549 16.8516 1.97478 16.8516C2.24407 16.8516 2.4236 16.7651 2.60312 16.5921L5.296 13.9113L9.06604 17.5434C9.24557 17.7163 9.42509 17.8028 9.69438 17.8028H9.87391C10.1432 17.8028 10.4125 17.5434 10.5022 17.3704L11.4896 15.4679C11.7589 14.9491 11.7589 14.4302 11.4896 13.9113L17.5037 7.07963C18.1321 6.47429 18.1321 5.43657 17.5037 4.83123ZM9.51486 15.5544L5.92434 12.0953L2.33383 8.63622L3.1417 8.20384L9.87391 14.6896L9.51486 15.5544ZM10.3227 12.7007L5.38577 7.94441L12.2975 2.32339L16.2471 6.12839L10.3227 12.7007Z" fill="#ABB7C2"/>
</svg>
