<svg width="20" height="25" viewBox="0 0 20 25" fill="none" xmlns="http://www.w3.org/2000/svg">
<path d="M9.98778 5.35938C7.43569 5.35938 5.35938 7.43569 5.35938 9.98778C5.35938 12.5399 7.43569 14.6162 9.98778 14.6162C12.5399 14.6162 14.6162 12.5399 14.6162 9.98778C14.6162 7.43569 12.5399 5.35938 9.98778 5.35938ZM9.98778 12.6674C8.51024 12.6674 7.30816 11.4653 7.30816 9.98778C7.30816 8.51024 8.51024 7.30816 9.98778 7.30816C11.4653 7.30816 12.6674 8.51024 12.6674 9.98778C12.6674 11.4653 11.4653 12.6674 9.98778 12.6674Z" fill="#90A3B5"/>
<path d="M9.98764 0C4.48043 0 0 4.48048 0 9.98764V10.2637C0 13.049 1.59683 16.2946 4.74629 19.9104C7.0294 22.5317 9.28062 24.3594 9.37528 24.4359L9.98764 24.9308L10.6 24.436C10.6947 24.3594 12.9459 22.5317 15.229 19.9105C18.3784 16.2946 19.9753 13.049 19.9753 10.2638V9.98769C19.9753 4.48048 15.4949 0 9.98764 0ZM18.0265 10.2638C18.0265 14.9707 11.9617 20.6685 9.98764 22.3981C8.013 20.6679 1.94879 14.9703 1.94879 10.2638V9.98769C1.94879 5.55508 5.55503 1.94884 9.98764 1.94884C14.4203 1.94884 18.0265 5.55508 18.0265 9.98769V10.2638Z" fill="#90A3B5"/>
</svg>
