<svg width="10" height="10" viewBox="0 0 10 10" fill="none" xmlns="http://www.w3.org/2000/svg">
<path d="M0.878906 4.12109H4.12109V0.878906C4.12109 0.393496 4.51459 0 5 0C5.48541 0 5.87891 0.393496 5.87891 0.878906V4.12109H9.12109C9.6065 4.12109 10 4.51459 10 5C10 5.48541 9.6065 5.87891 9.12109 5.87891H5.87891V9.12109C5.87891 9.6065 5.48541 10 5 10C4.51459 10 4.12109 9.6065 4.12109 9.12109V5.87891H0.878906C0.393497 5.87891 0 5.48541 0 5C0 4.51459 0.393497 4.12109 0.878906 4.12109Z" fill="#ABB7C2"/>
</svg>
