<svg width="56" height="56" viewBox="0 0 56 56" fill="none" xmlns="http://www.w3.org/2000/svg">
<path d="M11.0421 48.3379C14.3403 48.3379 17.014 45.6643 17.014 42.3661C17.014 39.068 14.3403 36.3943 11.0421 36.3943C7.74399 36.3943 5.07031 39.068 5.07031 42.3661C5.07031 45.6643 7.74399 48.3379 11.0421 48.3379Z" fill="#86BCFF"/>
<path d="M49.4643 43.0422C52.3269 43.0422 54.6474 40.7217 54.6474 37.8591C54.6474 34.9966 52.3269 32.676 49.4643 32.676C46.6018 32.676 44.2812 34.9966 44.2812 37.8591C44.2812 40.7217 46.6018 43.0422 49.4643 43.0422Z" fill="#CAE2FF"/>
<path d="M44.7329 16.9013C47.0976 16.9013 49.0146 14.9843 49.0146 12.6196C49.0146 10.2549 47.0976 8.33789 44.7329 8.33789C42.3681 8.33789 40.4512 10.2549 40.4512 12.6196C40.4512 14.9843 42.3681 16.9013 44.7329 16.9013Z" fill="#EBF4FF"/>
<path d="M6.33746 33.761C9.83755 33.761 12.6749 30.9928 12.6749 27.578C12.6749 24.1632 9.83755 21.395 6.33746 21.395C2.83738 21.395 0 24.1632 0 27.578C0 30.9928 2.83738 33.761 6.33746 33.761Z" fill="#66AAFF"/>
<path d="M24.5436 56.0001C27.7255 56.0001 30.3049 53.4866 30.3049 50.3861C30.3049 47.2855 27.7255 44.772 24.5436 44.772C21.3617 44.772 18.7822 47.2855 18.7822 50.3861C18.7822 53.4866 21.3617 56.0001 24.5436 56.0001Z" fill="#9CC8FF"/>
<path d="M39.3502 53.5403C42.373 53.5403 44.8234 51.1543 44.8234 48.2111C44.8234 45.2678 42.373 42.8818 39.3502 42.8818C36.3274 42.8818 33.877 45.2678 33.877 48.2111C33.877 51.1543 36.3274 53.5403 39.3502 53.5403Z" fill="#AED2FF"/>
<path d="M13.1938 19.4018C16.853 19.4018 19.8193 16.5063 19.8193 12.9346C19.8193 9.36278 16.853 6.46729 13.1938 6.46729C9.53468 6.46729 6.56836 9.36278 6.56836 12.9346C6.56836 16.5063 9.53468 19.4018 13.1938 19.4018Z" fill="#3891FF"/>
<path d="M51.1032 29.1981C53.8078 29.1981 56.0003 27.0462 56.0003 24.3918C56.0003 21.7373 53.8078 19.5854 51.1032 19.5854C48.3986 19.5854 46.2061 21.7373 46.2061 24.3918C46.2061 27.0462 48.3986 29.1981 51.1032 29.1981Z" fill="#D9EAFF"/>
<path d="M29.6344 13.9718C33.4926 13.9718 36.6203 10.8441 36.6203 6.98592C36.6203 3.1277 33.4926 0 29.6344 0C25.7761 0 22.6484 3.1277 22.6484 6.98592C22.6484 10.8441 25.7761 13.9718 29.6344 13.9718Z" fill="#0977FF"/>
</svg>
