<svg width="19" height="19" viewBox="0 0 19 19" fill="none" xmlns="http://www.w3.org/2000/svg">
<path fill-rule="evenodd" clip-rule="evenodd" d="M0.914062 2.99219C0.914062 1.8445 1.84444 0.914062 2.99219 0.914062H16.0078C17.1556 0.914062 18.0859 1.8445 18.0859 2.99219V16.0078C18.0859 17.1555 17.1556 18.0859 16.0078 18.0859H2.99219C1.84444 18.0859 0.914062 17.1555 0.914062 16.0078V2.99219ZM2.99219 2.41406C2.67289 2.41406 2.41406 2.6729 2.41406 2.99219V16.0078C2.41406 16.3271 2.67289 16.5859 2.99219 16.5859H16.0078C16.3271 16.5859 16.5859 16.3271 16.5859 16.0078V2.99219C16.5859 2.6729 16.3271 2.41406 16.0078 2.41406H2.99219ZM6.65995 7.7207L3.3915 4.45226L4.45216 3.39159L7.7207 6.66013V4.32031H9.2207V9.2207H4.32031V7.7207H6.65995ZM9.74609 9.74609H14.6465V11.2461H12.3068L15.5753 14.5146L14.5146 15.5753L11.2461 12.3068V14.6465H9.74609V9.74609Z" fill="#ABB7C2"/>
</svg>
