<svg width="17" height="17" viewBox="0 0 17 17" fill="none" xmlns="http://www.w3.org/2000/svg">
<mask id="mask0_42_446" style="mask-type:luminance" maskUnits="userSpaceOnUse" x="0" y="0" width="17" height="17">
<path d="M17 0H0V17H17V0Z" fill="white"/>
</mask>
<g mask="url(#mask0_42_446)">
<path fill-rule="evenodd" clip-rule="evenodd" d="M17.0859 15.0078C17.0859 16.1555 16.1556 17.0859 15.0078 17.0859H1.99219C0.844439 17.0859 -0.0859375 16.1555 -0.0859375 15.0078V1.99219C-0.0859375 0.844496 0.844439 -0.0859375 1.99219 -0.0859375H15.0078C16.1556 -0.0859375 17.0859 0.844496 17.0859 1.99219V15.0078ZM15.0078 15.5859C15.3271 15.5859 15.5859 15.3271 15.5859 15.0078V1.99219C15.5859 1.6729 15.3271 1.41406 15.0078 1.41406H1.99219C1.67289 1.41406 1.41406 1.6729 1.41406 1.99219V15.0078C1.41406 15.3271 1.67289 15.5859 1.99219 15.5859H15.0078Z" fill="#ABB7C2"/>
<path fill-rule="evenodd" clip-rule="evenodd" d="M6.57215 7.63281L2.39145 3.45211L3.45211 2.39145L7.63281 6.57215L6.57215 7.63281Z" fill="#ABB7C2"/>
<path fill-rule="evenodd" clip-rule="evenodd" d="M8.2207 8.2207H3.32031V6.7207H6.7207V3.32031H8.2207V8.2207Z" fill="#ABB7C2"/>
<path fill-rule="evenodd" clip-rule="evenodd" d="M10.3945 9.33383L14.5752 13.5145L13.5145 14.5752L9.33383 10.3945L10.3945 9.33383Z" fill="#ABB7C2"/>
<path fill-rule="evenodd" clip-rule="evenodd" d="M10.2461 10.2461V13.6465H8.74609V8.74609H13.6465V10.2461H10.2461Z" fill="#ABB7C2"/>
</g>
</svg>
