<svg width="21" height="21" viewBox="0 0 21 21" fill="none" xmlns="http://www.w3.org/2000/svg">
<path fill-rule="evenodd" clip-rule="evenodd" d="M8.91094 0C3.98955 0 0 4.00329 0 8.94163C0 13.88 3.98955 17.8833 8.91094 17.8833C13.8323 17.8833 17.8219 13.88 17.8219 8.94163C17.8219 4.00329 13.8323 0 8.91094 0ZM20.6328 20.6155C20.1369 21.1218 19.3213 21.129 18.8167 20.6315L15.2548 17.1194C15.9324 16.5894 16.5423 15.9763 17.0696 15.2956L20.6168 18.7932C21.1214 19.2907 21.1286 20.1092 20.6328 20.6155ZM8.91094 2.48958C12.4621 2.48958 15.3408 5.37826 15.3408 8.94158C15.3408 12.5049 12.462 15.3936 8.91094 15.3936C5.3598 15.3936 2.48108 12.5049 2.48108 8.94158C2.48108 5.37826 5.35984 2.48958 8.91094 2.48958Z" fill="#ABB7C2"/>
</svg>
