<svg width="16" height="16" viewBox="0 0 16 16" fill="none" xmlns="http://www.w3.org/2000/svg">
<path fill-rule="evenodd" clip-rule="evenodd" d="M5.52522 12.8638C5.7977 12.6752 6.17146 12.7432 6.36004 13.0157L7.03001 13.9837C7.21768 14.2549 7.15133 14.6267 6.88145 14.8162L5.92045 15.4911C5.64926 15.6815 5.27505 15.616 5.08461 15.3448C4.89418 15.0737 4.95964 14.6994 5.23082 14.509L5.70415 14.1766L5.37331 13.6986C5.18473 13.4261 5.25274 13.0523 5.52522 12.8638Z" fill="#7D9CC2"/>
<path fill-rule="evenodd" clip-rule="evenodd" d="M0.609766 9.4707C0.941137 9.4707 1.20977 9.73933 1.20977 10.0707C1.20977 10.8672 1.68488 11.6732 2.63561 12.3548C3.58244 13.0335 4.94244 13.539 6.52846 13.7189C6.85772 13.7563 7.09436 14.0535 7.05701 14.3827C7.01966 14.712 6.72247 14.9486 6.39321 14.9113C4.64782 14.7133 3.08229 14.1515 1.93644 13.33C0.79448 12.5114 0.00976562 11.3841 0.00976562 10.0707C0.00976562 9.73933 0.278395 9.4707 0.609766 9.4707Z" fill="#062E60"/>
<path fill-rule="evenodd" clip-rule="evenodd" d="M15 9.4707C15.3313 9.4707 15.6 9.73933 15.6 10.0707C15.6 11.3841 14.8152 12.5114 13.6733 13.33C12.5274 14.1515 10.9619 14.7133 9.21651 14.9113C8.88725 14.9486 8.59006 14.712 8.55271 14.3827C8.51536 14.0535 8.752 13.7563 9.08126 13.7189C10.6673 13.539 12.0273 13.0335 12.9741 12.3548C13.9248 11.6732 14.4 10.8672 14.4 10.0707C14.4 9.73933 14.6686 9.4707 15 9.4707Z" fill="#062E60"/>
<path fill-rule="evenodd" clip-rule="evenodd" d="M7.80454 4.28301C6.81105 4.28301 6.00566 5.08839 6.00566 6.08188C6.00566 7.07537 6.81105 7.88075 7.80454 7.88075C8.79803 7.88075 9.60341 7.07537 9.60341 6.08188C9.60341 5.08839 8.79803 4.28301 7.80454 4.28301ZM4.80566 6.08188C4.80566 4.42565 6.1483 3.08301 7.80454 3.08301C9.46077 3.08301 10.8034 4.42565 10.8034 6.08188C10.8034 7.73811 9.46077 9.08075 7.80454 9.08075C6.1483 9.08075 4.80566 7.73811 4.80566 6.08188Z" fill="#062E60"/>
<path fill-rule="evenodd" clip-rule="evenodd" d="M7.80508 0.122314C8.13645 0.122314 8.40508 0.390944 8.40508 0.722314V1.52997C8.40508 1.86134 8.13645 2.12997 7.80508 2.12997C7.47371 2.12997 7.20508 1.86134 7.20508 1.52997V0.722314C7.20508 0.390944 7.47371 0.122314 7.80508 0.122314Z" fill="#062E60"/>
<path fill-rule="evenodd" clip-rule="evenodd" d="M1.73242 6.08187C1.73242 2.72833 4.45099 0.00976562 7.80453 0.00976562C11.1581 0.00976562 13.8766 2.72833 13.8766 6.08187C13.8766 7.03484 13.6567 7.93815 13.2642 8.74225C13.1188 9.04004 12.7596 9.16362 12.4618 9.01826C12.164 8.87291 12.0404 8.51367 12.1858 8.21588C12.5 7.57212 12.6766 6.84847 12.6766 6.08187C12.6766 3.39108 10.4953 1.20977 7.80453 1.20977C5.11373 1.20977 2.93242 3.39108 2.93242 6.08187C2.93242 8.77267 5.11374 10.954 7.80453 10.954C8.74293 10.954 9.6177 10.6893 10.3603 10.2307C10.6423 10.0566 11.012 10.1441 11.1861 10.426C11.3601 10.708 11.2727 11.0777 10.9908 11.2518C10.0642 11.8239 8.97197 12.154 7.80453 12.154C4.45099 12.154 1.73242 9.4354 1.73242 6.08187Z" fill="#062E60"/>
</svg>
