<svg width="19" height="27" viewBox="0 0 19 27" fill="none" xmlns="http://www.w3.org/2000/svg">
<path d="M9.5625 10.4861C11.2971 10.4861 12.7083 9.07489 12.7083 7.34028C12.7083 5.60567 11.2971 4.19444 9.5625 4.19444C7.82789 4.19444 6.41667 5.60567 6.41667 7.34028C6.41667 9.07489 7.82789 10.4861 9.5625 10.4861ZM9.5625 6.29167C10.1407 6.29167 10.6111 6.76207 10.6111 7.34028C10.6111 7.91848 10.1407 8.38889 9.5625 8.38889C8.9843 8.38889 8.51389 7.91848 8.51389 7.34028C8.51389 6.76207 8.9843 6.29167 9.5625 6.29167ZM16.0693 17.7514C15.5546 17.4858 14.9222 17.6877 14.6565 18.2023C14.3909 18.7169 14.5928 19.3494 15.1075 19.6151C16.2484 20.204 16.9028 20.928 16.9028 21.6014C16.9028 23.0864 13.7637 24.7472 9.5625 24.7472C5.36134 24.7472 2.22222 23.0864 2.22222 21.6014C2.22222 20.9278 2.87671 20.2037 4.01797 19.6148C4.53257 19.3493 4.73454 18.7168 4.46892 18.2021C4.20336 17.6875 3.57084 17.4855 3.05618 17.7512C1.16596 18.7266 0.125 20.094 0.125 21.6014C0.125 24.6704 4.4027 26.8444 9.5625 26.8444C14.7152 26.8444 19 24.6749 19 21.6014C19 20.0941 17.9592 18.7269 16.0693 17.7514ZM2.93297 10.4903L8.62142 22.0639C8.79775 22.4227 9.16272 22.65 9.5625 22.65C9.96228 22.65 10.3273 22.4227 10.5036 22.0639C10.5036 22.0639 16.1963 10.4815 16.1984 10.4771C16.6658 9.49166 16.9028 8.43629 16.9028 7.34028C16.9028 3.29285 13.6099 0 9.5625 0C5.51507 0 2.22222 3.29285 2.22222 7.34028C2.22222 8.43629 2.45921 9.49166 2.92657 10.4771C2.92867 10.4815 2.93082 10.4859 2.93297 10.4903ZM9.5625 2.09722C12.4535 2.09722 14.8056 4.44926 14.8056 7.34028C14.8056 8.12065 14.6376 8.87156 14.3065 9.57214L9.5625 19.2241L4.81853 9.57214C4.48738 8.87156 4.31944 8.12065 4.31944 7.34028C4.31944 4.44926 6.67148 2.09722 9.5625 2.09722Z" fill="#90A3B5"/>
</svg>
