<svg width="21" height="20" viewBox="0 0 21 20" fill="none" xmlns="http://www.w3.org/2000/svg">
<path d="M12.5 15.0382L5 7.53822C4.4 6.93822 3.5 6.73822 2.7 7.13822L0.5 8.23822C0.2 8.33822 0 8.63822 0 8.93822C0 9.23822 -5.96046e-08 9.53822 0.3 9.83822L4.5 14.0382L1.4 17.0382C1 17.4382 1 18.0382 1.4 18.4382C1.7 18.7382 1.9 18.8382 2.2 18.8382C2.5 18.8382 2.7 18.7382 2.9 18.5382L5.9 15.4382L10.1 19.6382C10.3 19.8382 10.5 19.9382 10.8 19.9382H11C11.3 19.9382 11.6 19.6382 11.7 19.4382L12.8 17.2382C13.3 16.5382 13.1 15.6382 12.5 15.0382ZM10.6 17.3382L6.6 13.3382L2.6 9.33822L3.5 8.83822L11 16.3382L10.6 17.3382ZM19.5 4.93822L15.1 0.538222C14.4 -0.161778 13.2 -0.161778 12.4 0.438222L6.9 5.13822L4.9 3.13822C4.5 2.73822 3.9 2.73822 3.5 3.13822C3.1 3.53822 3.1 4.13822 3.5 4.53822L15.5 16.5382C15.7 16.7382 16 16.8382 16.2 16.8382C16.4 16.8382 16.7 16.7382 16.9 16.5382C17.3 16.1382 17.3 15.5382 16.9 15.1382L14.9 13.1382L19.5 7.63822C20.2 6.83822 20.2 5.63822 19.5 4.93822ZM13.5 11.7382L8.3 6.53822L13.7 2.03822L18.1 6.43822L13.5 11.7382Z" fill="#90A3B5"/>
</svg>
