<svg width="28" height="23" viewBox="0 0 28 23" fill="none" xmlns="http://www.w3.org/2000/svg">
<path fill-rule="evenodd" clip-rule="evenodd" d="M0.792969 2.52107C0.792969 3.15487 1.32016 3.59009 1.87098 3.59009H3.29505C3.84587 3.59009 4.37306 3.15487 4.37306 2.52107V1.16896C4.37306 0.535162 3.84587 0.0999475 3.29505 0.0999475H1.87098C1.32016 0.0999475 0.792969 0.535162 0.792969 1.16896V2.52107Z" fill="#062E60"/>
<path fill-rule="evenodd" clip-rule="evenodd" d="M10.9609 2.52107C10.9609 3.15487 11.4881 3.59009 12.0389 3.59009H13.463C14.0138 3.59009 14.541 3.15487 14.541 2.52107V1.16896C14.541 0.535162 14.0138 0.0999475 13.463 0.0999475H12.0389C11.4881 0.0999475 10.9609 0.535162 10.9609 1.16896V2.52107Z" fill="#062E60"/>
<path fill-rule="evenodd" clip-rule="evenodd" d="M0.792969 21.8309C0.792969 22.4647 1.32016 22.8999 1.87098 22.8999H3.29505C3.84587 22.8999 4.37306 22.4647 4.37306 21.8309V20.4788C4.37306 19.845 3.84587 19.4098 3.29505 19.4098H1.87098C1.32016 19.4098 0.792969 19.845 0.792969 20.4788V21.8309Z" fill="#062E60"/>
<path fill-rule="evenodd" clip-rule="evenodd" d="M0.792969 21.8309C0.792969 22.4647 1.32016 22.8999 1.87098 22.8999H3.29505C3.84587 22.8999 4.37306 22.4647 4.37306 21.8309V20.4788C4.37306 19.845 3.84587 19.4098 3.29505 19.4098H1.87098C1.32016 19.4098 0.792969 19.845 0.792969 20.4788V21.8309Z" fill="#062E60"/>
<path fill-rule="evenodd" clip-rule="evenodd" d="M0.792969 12.1759C0.792969 12.8097 1.32016 13.2449 1.87098 13.2449H3.29505C3.84587 13.2449 4.37306 12.8097 4.37306 12.1759V10.8237C4.37306 10.1899 3.84587 9.75473 3.29505 9.75473H1.87098C1.32016 9.75473 0.792969 10.1899 0.792969 10.8237V12.1759Z" fill="#062E60"/>
<path fill-rule="evenodd" clip-rule="evenodd" d="M0.792969 12.1759C0.792969 12.8097 1.32016 13.2449 1.87098 13.2449H3.29505C3.84587 13.2449 4.37306 12.8097 4.37306 12.1759V10.8237C4.37306 10.1899 3.84587 9.75473 3.29505 9.75473H1.87098C1.32016 9.75473 0.792969 10.1899 0.792969 10.8237V12.1759Z" fill="#062E60"/>
<path fill-rule="evenodd" clip-rule="evenodd" d="M10.9609 21.8309C10.9609 22.4647 11.4881 22.8999 12.0389 22.8999H13.463C14.0138 22.8999 14.541 22.4647 14.541 21.8309V20.4788C14.541 19.845 14.0138 19.4098 13.463 19.4098H12.0389C11.4881 19.4098 10.9609 19.845 10.9609 20.4788V21.8309Z" fill="#062E60"/>
<path fill-rule="evenodd" clip-rule="evenodd" d="M21.1299 21.8309C21.1299 22.4647 21.6571 22.8999 22.2079 22.8999H23.632C24.1828 22.8999 24.71 22.4647 24.71 21.8309V20.4788C24.71 19.845 24.1828 19.4098 23.632 19.4098H22.2079C21.6571 19.4098 21.1299 19.845 21.1299 20.4788V21.8309Z" fill="#062E60"/>
<path fill-rule="evenodd" clip-rule="evenodd" d="M21.1299 12.1759C21.1299 12.8097 21.6571 13.2449 22.2079 13.2449H23.632C24.1828 13.2449 24.71 12.8097 24.71 12.1759V10.8237C24.71 10.1899 24.1828 9.75473 23.632 9.75473H22.2079C21.6571 9.75473 21.1299 10.1899 21.1299 10.8237V12.1759Z" fill="#062E60"/>
<path fill-rule="evenodd" clip-rule="evenodd" d="M2.57227 21.1549C2.57227 21.652 2.97521 22.0549 3.47227 22.0549H11.861C12.358 22.0549 12.761 21.652 12.761 21.1549C12.761 20.6579 12.358 20.2549 11.861 20.2549H3.47227C2.97521 20.2549 2.57227 20.6579 2.57227 21.1549Z" fill="#062E60"/>
<path fill-rule="evenodd" clip-rule="evenodd" d="M12.7412 21.1549C12.7412 21.652 13.1442 22.0549 13.6412 22.0549H22.0299C22.527 22.0549 22.9299 21.652 22.9299 21.1549C22.9299 20.6579 22.527 20.2549 22.0299 20.2549H13.6412C13.1442 20.2549 12.7412 20.6579 12.7412 21.1549Z" fill="#062E60"/>
<path fill-rule="evenodd" clip-rule="evenodd" d="M22.9205 21.2097C23.4176 21.2097 23.8205 20.8068 23.8205 20.3097V12.3449C23.8205 11.8479 23.4176 11.4449 22.9205 11.4449C22.4235 11.4449 22.0205 11.8479 22.0205 12.3449V20.3097C22.0205 20.8068 22.4235 21.2097 22.9205 21.2097Z" fill="#062E60"/>
<path fill-rule="evenodd" clip-rule="evenodd" d="M23.5038 11.1884C23.1942 11.4944 22.682 11.5036 22.3597 11.209L13.081 2.72658C12.7588 2.43199 12.7485 1.94517 13.0581 1.63924C13.3678 1.33332 13.88 1.32413 14.2022 1.61872L23.481 10.1011C23.8032 10.3957 23.8135 10.8825 23.5038 11.1884Z" fill="#062E60"/>
<path fill-rule="evenodd" clip-rule="evenodd" d="M2.57227 1.84487C2.57227 2.34193 2.97521 2.74487 3.47227 2.74487H11.861C12.358 2.74487 12.761 2.34193 12.761 1.84487C12.761 1.34782 12.358 0.944873 11.861 0.944873H3.47227C2.97521 0.944873 2.57227 1.34782 2.57227 1.84487Z" fill="#062E60"/>
<path fill-rule="evenodd" clip-rule="evenodd" d="M2.58164 11.5549C3.0787 11.5549 3.48164 11.152 3.48164 10.6549V2.69014C3.48164 2.19309 3.0787 1.79014 2.58164 1.79014C2.08458 1.79014 1.68164 2.19309 1.68164 2.69014V10.6549C1.68164 11.152 2.08458 11.5549 2.58164 11.5549Z" fill="#062E60"/>
<path fill-rule="evenodd" clip-rule="evenodd" d="M2.58164 21.2097C3.0787 21.2097 3.48164 20.8068 3.48164 20.3097V12.3449C3.48164 11.8479 3.0787 11.4449 2.58164 11.4449C2.08458 11.4449 1.68164 11.8479 1.68164 12.3449V20.3097C1.68164 20.8068 2.08458 21.2097 2.58164 21.2097Z" fill="#062E60"/>
</svg>
