<svg width="25" height="23" viewBox="0 0 25 23" fill="none" xmlns="http://www.w3.org/2000/svg">
<path fill-rule="evenodd" clip-rule="evenodd" d="M1.68171 3.57316C1.20534 3.48698 0.792969 3.08177 0.792969 2.52122V1.16911C0.792969 0.535313 1.32016 0.100098 1.87098 0.100098H3.29505C3.77822 0.100098 4.24322 0.434981 4.35014 0.945027H10.9842C11.0912 0.434981 11.5562 0.100098 12.0393 0.100098H13.4634C14.0142 0.100098 14.5414 0.535314 14.5414 1.16911V1.77577L23.2696 9.75488H23.6318C24.1826 9.75488 24.7098 10.1901 24.7098 10.8239V12.176C24.7098 12.7368 24.2971 13.1421 23.8205 13.2281V19.4269C24.2971 19.5128 24.7098 19.9181 24.7098 20.4789V21.831C24.7098 22.4648 24.1826 22.9001 23.6318 22.9001H22.2078C21.7246 22.9001 21.2596 22.5652 21.1527 22.0551H14.5185C14.4116 22.5652 13.9466 22.9001 13.4634 22.9001H12.0393C11.5561 22.9001 11.0911 22.5652 10.9842 22.0551H4.35015C4.24324 22.5652 3.77824 22.9001 3.29505 22.9001H1.87098C1.32016 22.9001 0.792969 22.4648 0.792969 21.831V20.4789C0.792969 19.9184 1.20534 19.5132 1.68171 19.427V13.2279C1.20534 13.1418 0.792969 12.7366 0.792969 12.176V10.8239C0.792969 10.2634 1.20534 9.85814 1.68171 9.77196V3.57316ZM3.48171 3.57363V9.77149C3.95919 9.85666 4.37306 10.2623 4.37306 10.8239V12.176C4.37306 12.7376 3.95919 13.1432 3.48171 13.2284V19.4265C3.89308 19.4999 4.25724 19.8112 4.35019 20.2551H10.9842C11.091 19.7449 11.5561 19.4099 12.0393 19.4099H13.4634C13.9467 19.4099 14.4117 19.7449 14.5185 20.2551H21.1526C21.2455 19.8114 21.6094 19.5002 22.0205 19.4266V13.2283C21.5433 13.1429 21.1297 12.7373 21.1297 12.176V10.8239C21.1297 10.6457 21.1714 10.4831 21.2436 10.3416L13.7992 3.536C13.6913 3.57145 13.5778 3.59024 13.4634 3.59024H12.0393C11.5561 3.59024 11.091 3.25523 10.9842 2.74503H4.3502C4.25726 3.18896 3.89309 3.50025 3.48171 3.57363Z" fill="#062E60"/>
</svg>
