<?xml version="1.0" standalone="no"?>
<!DOCTYPE svg PUBLIC "-//W3C//DTD SVG 1.1//EN" "http://www.w3.org/Graphics/SVG/1.1/DTD/svg11.dtd" >
<svg xmlns="http://www.w3.org/2000/svg">
<defs>
  <font id="ungic" horiz-adv-x="2048">
    <font-face font-family="ungic"
      units-per-em="512" ascent="512"
      descent="0"
      font-weight="400" />
    <missing-glyph horiz-adv-x="0" />
    <glyph glyph-name="camera"
      unicode="&#xF108;"
      horiz-adv-x="576" d="M568.6886809632201 211.68L533.3286809632201 235.904L543.1526809632201 243.744A16.96 16.96 0 0 1 542.5126809632201 270.688L218.0006809632201 505.568A33.664 33.664 0 0 1 171.9206809632201 499.36L65.2646809632201 366.304A33.92 33.92 0 0 1 71.9846809632201 317.568L153.0406809632201 259.552L120.4966809632201 213.184A16.96 16.96 0 0 1 124.6566809632201 189.5680000000001L136.2406809632201 181.472A101.92 101.92 0 0 0 65.4246809632201 152.8H33.7446809632201V189.472A16.896 16.896 0 1 1 0.0166809632201 189.472V16.928A16.896 16.896 0 1 1 33.7766809632201 16.928V51.328H56.6246809632201A216.32 216.32 0 0 1 218.4806809632201 124.224L235.3766809632201 112.48C243.0566809632201 107.104 253.6806809632201 109.088 258.9606809632201 116.832L289.5206809632201 161.824L359.0246809632201 112.064C365.1686809632201 107.68 373.4886809632201 107.904 379.3766809632201 112.608L404.5606809632201 132.768L470.0326809632201 85.5360000000001A16.832 16.832 0 0 1 493.04068096322 88.64L572.2726809632201 187.0720000000001A16.96 16.96 0 0 1 568.6566809632201 211.6800000000001zM56.6886809632201 85.152H33.8086809632201V118.976H65.4566809632201A135.68 135.68 0 0 1 164.4006809632201 161.888L190.5766809632201 143.68A183.776 183.776 0 0 0 56.6566809632201 85.12zM240.6886809632201 149.984L157.8406809632201 207.68L180.4966809632201 239.904L262.0326809632201 181.536L240.6246809632201 150.016zM368.3046809632201 147.04L91.5686809632201 345.12L198.2246809632201 478.176L504.6886809632201 256.288L368.2726809632201 147.04zM476.8166809632201 122.368L431.9846809632201 154.7199999999999L505.74468096322 213.7919999999999L534.5446809632201 194.0799999999999L476.8166809632201 122.368z" />
    <glyph glyph-name="checkbox"
      unicode="&#xF123;"
      horiz-adv-x="658.2857142857142" d="M252.068582937543 9.8742857142857A33.4994285714286 33.4994285714286 0 0 0 204.5257257946859 9.8742857142857L14.7931543661145 200.0457142857143A50.4685714285714 50.4685714285714 0 0 0 14.7931543661145 271.36L38.564582937543 295.2045714285714C58.3131543661145 314.9531428571429 90.1302972232573 314.9531428571429 109.8788686518287 295.2045714285714L228.3702972232573 176.4937142857143L548.3702972232572 497.2251428571428C568.1188686518286 516.9737142857143 600.0091543661143 516.9737142857143 619.6845829375429 497.2251428571428L643.4560115089714 473.3805714285714A50.4685714285714 50.4685714285714 0 0 0 643.4560115089714 401.9931428571429L252.068582937543 9.8742857142857z" />
    <glyph glyph-name="click"
      unicode="&#xF10C;"
      horiz-adv-x="438.85714285714283" d="M359.2184787040217 196.2788571428572H279.4196215611646V271.9085714285715A59.392 59.392 0 0 1 261.8287644183075 314.1485714285715A60.0868571428571 60.0868571428571 0 0 1 196.3659072754503 327.0948571428572A60.0868571428571 60.0868571428571 0 0 1 163.8539072754503 294.7657142857143C160.8550501325932 287.5245714285715 159.2824787040217 279.7714285714286 159.2824787040217 271.9085714285715V74.2765714285714C159.2824787040217 54.5645714285714 167.1819072754503 35.6937142857143 181.2253358468789 21.76C195.1956215611646 7.8628571428571 214.2127644183074 0.0365714285714 233.9979072754503 0H359.2184787040217C379.0036215611646 0 397.984192989736 7.8628571428571 411.9910501325931 21.76C425.9979072754503 35.6937142857143 433.8973358468789 54.5645714285714 433.9339072754502 74.2765714285714V122.0022857142857C433.8973358468789 141.7142857142857 425.9979072754503 160.5851428571428 411.9910501325931 174.5188571428571A75.008 75.008 0 0 1 359.2184787040217 196.2788571428571zM401.7144787040217 74.2765714285715C401.7144787040217 63.0857142857144 397.216192989736 52.3337142857143 389.2436215611646 44.3977142857143A42.6788571428572 42.6788571428572 0 0 0 359.2184787040217 32.0365714285715H233.9979072754503C222.7339072754503 32.0365714285715 211.9453358468789 36.4982857142858 203.9727644183075 44.3977142857143A42.1668571428571 42.1668571428571 0 0 0 191.5019072754503 74.2765714285715V271.9085714285715C191.5019072754503 279.2594285714286 194.4276215611646 286.3177142857143 199.6573358468789 291.5108571428572A27.9405714285714 27.9405714285714 0 0 0 247.200192989736 271.9085714285715V180.2971428571429A15.9451428571429 15.9451428571429 0 0 1 263.2916215611646 164.3154285714286H359.2184787040217C370.4824787040217 164.3154285714286 381.2710501325932 159.8171428571429 389.2436215611646 151.8811428571429C397.216192989736 143.9817142857144 401.6779072754503 133.2297142857144 401.6779072754503 122.0388571428572V74.3131428571429zM116.5304787040217 118.8205714285715A16.0548571428571 16.0548571428571 0 0 0 99.8539072754503 112.3108571428572A16.0914285714286 16.0914285714286 0 0 0 94.112192989736 114.8342857142858A218.4411428571428 218.4411428571428 0 0 0 18.4824787040217 206.2628571428572A216.9782857142857 216.9782857142857 0 0 0 49.6047644183074 432.0182857142858A219.4285714285714 219.4285714285714 0 0 0 147.2139072754504 499.8217142857143A220.672 220.672 0 0 0 371.1773358468789 451.4377142857143A217.856 217.856 0 0 0 431.6299072754504 349.4765714285715A216.9417142857143 216.9417142857143 0 0 0 429.5819072754504 231.0948571428572A16.0182857142857 16.0182857142857 0 0 0 409.577335846879 220.4891428571429A16.0914285714286 16.0914285714286 0 0 0 398.7521929897361 240.3474285714286C404.0184787040218 257.7554285714286 406.6881929897362 275.8582857142858 406.6516215611647 294.0708571428572C406.6516215611647 396.7268571428572 322.6470501325932 480.256 219.3327644183075 480.256C116.0550501325932 480.256 32.0504787040218 396.7268571428572 32.0504787040218 294.0708571428572C32.0504787040218 264.0091428571429 39.3647644183075 234.3862857142858 53.408192989736 207.7622857142858A186.8434285714286 186.8434285714286 0 0 1 112.5076215611646 141.0925714285715A16.0182857142857 16.0182857142857 0 0 0 116.5304787040218 118.8205714285715zM125.5270501325931 294.0708571428572C125.5270501325931 281.0514285714286 128.2333358468788 268.2148571428572 133.536192989736 256.3291428571429A15.9451428571429 15.9451428571429 0 0 0 119.200192989736 233.728A16.2011428571429 16.2011428571429 0 0 0 104.096192989736 243.3462857142858A124.6354285714286 124.6354285714286 0 0 0 113.7510501325932 362.4228571428572C125.1979072754503 379.8674285714286 140.8504787040218 394.24 159.2824787040218 404.1874285714286A126.6102857142857 126.6102857142857 0 0 0 324.9510501325932 362.4228571428572A124.7817142857143 124.7817142857143 0 0 0 334.6059072754504 243.3828571428572A16.0182857142857 16.0182857142857 0 0 0 319.5019072754503 233.7645714285715A16.1645714285714 16.1645714285714 0 0 0 304.8001929897361 244.0411428571429A15.9451428571429 15.9451428571429 0 0 0 305.1659072754504 256.3657142857143A92.8182857142857 92.8182857142857 0 0 1 276.3841929897361 368.1645714285715A94.0982857142857 94.0982857142857 0 0 1 197.3899072754504 384.7680000000001A94.0617142857143 94.0617142857143 0 0 1 134.6699072754504 334.2262857142857C128.6356215611647 321.6822857142858 125.5270501325932 307.968 125.5270501325932 294.1074285714286z" />
    <glyph glyph-name="connection"
      unicode="&#xF10A;"
      horiz-adv-x="585.1428571428571" d="M17.5854070310421 164.5714285714286A30.5005714285714 30.5005714285714 0 0 1 48.0128356024707 134.0708571428572H462.2939784596135L392.2231213167564 64.2925714285715A30.5737142857143 30.5737142857143 0 1 1 435.4505498881849 20.9920000000001L557.3796927453278 142.9211428571429A30.5005714285714 30.5005714285714 0 0 1 552.6254070310421 189.8057142857143A30.5005714285714 30.5005714285714 0 0 1 535.8025498881849 195.072H47.9396927453278A30.5005714285714 30.5005714285714 0 0 1 17.5854070310421 164.5714285714286zM26.362549888185 369.0788571428572A30.5005714285714 30.5005714285714 0 0 1 31.1899784596136 322.1211428571429C36.1636927453279 318.7565714285714 42.0151213167564 317.0011428571429 48.0128356024707 317.0011428571429H535.6562641738992A30.5005714285714 30.5005714285714 0 1 1 535.6562641738992 377.9291428571429H121.5214070310421L191.5922641738993 447.6342857142858A30.5737142857143 30.5737142857143 0 0 1 148.3648356024707 490.8617142857143L26.362549888185 369.0788571428572z" />
    <glyph glyph-name="cross"
      unicode="&#xF102;"
      horiz-adv-x="512" d="M109.2800000000008 482.272L256.0000000000008 335.552L402.7200000000008 482.24A56.256 56.256 0 1 0 482.2720000000008 402.688L335.5520000000008 256L482.2720000000008 109.28A56.256 56.256 0 0 0 402.7200000000008 29.728L256.0000000000008 176.448L109.2800000000007 29.728A56.256 56.256 0 0 0 29.7280000000007 109.28L176.4480000000008 256L29.7280000000008 402.7200000000001A56.256 56.256 0 1 0 109.2800000000008 482.272z" />
    <glyph glyph-name="filter"
      unicode="&#xF104;"
      horiz-adv-x="512" d="M490.015634953562 512H22.0049682868954C11.0396349535621 512 2.1649682868954 503.04 2.1649682868954 492.0106666666667C2.1649682868954 411.4133333333334 41.8876349535621 336.64 108.4049682868954 291.9893333333334A157.3546666666667 157.3546666666667 0 0 0 177.9943016202288 161.0026666666667V98.6880000000001C177.9943016202288 79.3386666666667 188.2343016202288 61.1626666666667 204.7463016202288 51.2853333333334L282.1009682868954 4.8853333333333C304.8849682868954 -8.768 334.0049682868954 7.808 334.0049682868954 34.6666666666667V161.0026666666667C334.0049682868954 213.7813333333334 360.0316349535621 262.7626666666667 403.5943016202288 291.9893333333334A240.2986666666667 240.2986666666667 0 0 1 509.8343016202288 492.0106666666667A19.9253333333333 19.9253333333333 0 0 1 489.9943016202288 512zM381.6209682868954 325.2906666666667A197.3546666666666 197.3546666666666 0 0 1 294.3463016202287 161.024V44.0746666666666L225.0129682868954 85.6746666666667A15.2533333333333 15.2533333333333 0 0 0 217.6529682868954 98.688V161.0026666666667A197.3546666666666 197.3546666666666 0 0 1 130.3996349535621 325.2693333333333A200.0426666666667 200.0426666666667 0 0 0 42.8049682868954 471.9999999999999H469.1943016202287A200.0213333333333 200.0213333333333 0 0 0 381.6209682868954 325.2906666666667z" />
    <glyph glyph-name="filter_arrow"
      unicode="&#xF106;"
      horiz-adv-x="768" d="M680.0877156683518 455.5093333333333H87.8743823350186C59.8850490016853 455.5093333333333 45.6343823350186 418.3893333333334 65.6877156683519 396.3733333333334L361.7943823350186 71.7653333333334A29.696 29.696 0 0 1 406.1677156683519 71.7653333333334L702.2743823350186 396.3733333333334C722.4130490016853 418.3893333333334 708.0770490016853 455.5093333333333 680.087715668352 455.5093333333333z" />
    <glyph glyph-name="layers"
      unicode="&#xF10F;"
      horiz-adv-x="512" d="M500.9687272727273 273.8967272727273L418.7229090909092 314.9963636363637L500.9687272727273 356.1192727272727A20.0145454545455 20.0145454545455 0 0 1 500.9687272727273 391.8894545454546L264.9367272727273 509.8821818181818A20.0145454545455 20.0145454545455 0 0 1 247.0632727272728 509.8821818181818L11.0312727272727 391.9127272727273A20.0145454545455 20.0145454545455 0 0 1 11.0312727272727 356.1425454545455L93.2770909090909 315.0196363636363L11.0312727272727 273.92A20.0145454545455 20.0145454545455 0 0 1 11.0312727272727 238.1265454545454L93.2770909090909 197.0269090909091L11.0312727272727 155.904A20.0145454545455 20.0145454545455 0 0 1 11.0312727272727 120.1338181818181L247.0632727272728 2.1410909090908A20.0145454545455 20.0145454545455 0 0 1 264.9367272727273 2.1410909090908L500.9687272727273 120.1338181818181A20.0145454545455 20.0145454545455 0 0 1 500.9687272727273 155.904L418.7229090909092 197.0269090909091L500.9687272727273 238.1265454545454A20.0145454545455 20.0145454545455 0 0 1 500.9687272727273 273.92zM256 469.6203636363637L447.3018181818182 373.9927272727273L256 278.3418181818182L64.6981818181818 373.9927272727273L256 469.6436363636363zM447.3018181818182 137.984L256 42.3563636363637L64.6981818181818 138.0072727272727L138.0072727272727 174.6385454545454L247.0632727272728 120.1105454545455A20.0145454545455 20.0145454545455 0 0 1 264.9367272727273 120.1105454545455L374.016 174.6385454545455L447.2785454545455 138.0072727272727zM256 160.3956363636364L64.6981818181818 256L138.0072727272727 292.6312727272728L247.0632727272728 238.1032727272727A20.0145454545455 20.0145454545455 0 0 1 264.9367272727273 238.1032727272727L374.016 292.6312727272728L447.2785454545455 256L256 160.3490909090909z" />
    <glyph glyph-name="minus"
      unicode="&#xF115;"
      horiz-adv-x="2048" d="M1849.856 91.136H198.144C89.216 91.136 0 177.024 0 282.112C0 387.072 89.216 473.088 198.144 473.088H1849.856C1958.784 473.088 2048 387.072 2048 282.112S1958.784 91.136 1849.856 91.136z" />
    <glyph glyph-name="pin"
      unicode="&#xF100;"
      horiz-adv-x="512" d="M498.2358499623354 374.5848888888889L385.8802944067799 482.816C368.0171832956687 500.0248888888889 337.4109610734465 500.0248888888889 316.9594055178909 485.2622222222222L115.2314055178909 320.4551111111112C102.4882944067798 327.8506666666667 84.5967388512242 327.8506666666667 69.2936277401131 320.4551111111112L13.1158499623353 293.4044444444445A18.5457777777778 18.5457777777778 0 0 1 0.3442944067798 276.1955555555556C0.3442944067798 268.8000000000001 0.3442944067798 261.4044444444445 8.0242944067798 254.0373333333334L115.2598499623354 150.7555555555556L36.0989610734465 76.9706666666667A23.1822222222222 23.1822222222222 0 0 1 36.0989610734465 42.552888888889C43.750516629002 35.1573333333334 48.8420721845576 32.6826666666667 56.5220721845576 32.6826666666667A23.6088888888889 23.6088888888889 0 0 1 74.3851832956687 40.0782222222223L150.9860721845576 116.3093333333334L258.2216277401132 13.0275555555556C263.3416277401132 8.1066666666668 268.4616277401131 5.6320000000001 276.0847388512243 5.6320000000001H281.2047388512243C288.8847388512242 5.6320000000001 296.5078499623354 13.0275555555556 299.0678499623354 17.9484444444445L327.1709610734465 72.0497777777778A45.5111111111111 45.5111111111111 0 0 1 327.1709610734465 116.3377777777778L498.2358499623354 310.6417777777778A44.8284444444444 44.8284444444444 0 0 1 498.2358499623354 374.6133333333334zM270.9647388512243 69.5751111111111L168.8491832956687 167.9644444444444L66.7336277401132 266.3537777777778L89.7167388512243 278.6417777777778L281.2047388512243 94.1511111111111L270.9647388512243 69.5751111111111zM293.9762944067798 150.7271111111111L153.5460721845576 286.0373333333333L350.1256277401132 445.8951111111112L462.4811832956686 337.6924444444445L293.9762944067798 150.7271111111111z" />
    <glyph glyph-name="placemark"
      unicode="&#xF10E;"
      horiz-adv-x="409.6" d="M204.81024 402.2272A94.90432 94.90432 0 0 1 110.00832 307.44576A94.90432 94.90432 0 0 1 204.81024 212.66432A94.90432 94.90432 0 0 1 299.59168 307.44576A94.90432 94.90432 0 0 1 204.81024 402.24768zM204.81024 252.57984A54.94784 54.94784 0 0 0 149.92384 307.46624A54.94784 54.94784 0 0 0 204.81024 362.33216A54.94784 54.94784 0 0 0 259.69664 307.44576A54.94784 54.94784 0 0 0 204.81024 252.55936zM204.81024 512C92.0064 512 0.256 420.2496 0.256 307.44576V301.79328C0.256 244.75648 32.96256 178.29888 97.45408 104.2432C144.20992 50.54464 190.33088 13.1072 192.27648 11.55072L204.81024 1.41312L217.344 11.55072C219.2896 13.12768 265.39008 50.54464 312.1459200000001 104.2432C376.65792 178.2784 409.3440000000001 244.75648 409.3440000000001 301.79328V307.44576C409.3440000000001 420.2496 317.5936000000001 512 204.81024 512zM369.4284800000001 301.79328C369.4284800000001 205.39392 245.23776 88.69888 204.81024 53.28896C164.36224 88.71936 40.15104 205.4144 40.15104 301.79328V307.44576C40.15104 398.2336 114.0224 472.10496 204.81024 472.10496C295.5776 472.10496 369.4284800000001 398.2336 369.4284800000001 307.44576V301.79328z" />
    <glyph glyph-name="plus"
      unicode="&#xF129;"
      horiz-adv-x="512" d="M45.0048 301.0048H210.9440000000001V466.944A45.0048 45.0048 0 1 0 300.9536000000001 466.944V301.056H466.944A45.0048 45.0048 0 1 0 466.944 211.0464H301.0560000000001V45.056A45.0048 45.0048 0 1 0 211.0464 45.056V210.944H45.056A45.0048 45.0048 0 1 0 45.056 300.9536z" />
    <glyph glyph-name="preloader"
      unicode="&#xF124;"
      horiz-adv-x="512" d="M100.9554285714286 70.0525714285715A54.6011428571429 54.6011428571429 0 1 1 100.9554285714286 179.2548571428572A54.6011428571429 54.6011428571429 0 0 1 100.9554285714286 70.0525714285715zM452.2422857142857 118.4731428571429A47.3874285714286 47.3874285714286 0 1 1 452.2422857142857 213.248A47.3874285714286 47.3874285714286 0 0 1 452.2422857142857 118.4731428571429zM408.9874285714285 357.4765714285715A39.1497142857143 39.1497142857143 0 1 1 408.9874285714285 435.7668571428572A39.1497142857143 39.1497142857143 0 0 1 408.9874285714285 357.4765714285715zM57.9382857142857 203.328C89.9382857142857 203.328 115.8857142857143 228.6354285714286 115.8857142857143 259.8582857142857S89.9474285714286 316.3885714285714 57.9382857142857 316.3885714285714C25.9382857142857 316.3885714285714 0 291.0811428571428 0 259.8582857142857S25.9382857142857 203.328 57.9382857142857 203.328zM224.4022857142857 0C253.4857142857143 0 277.0651428571429 22.976 277.0651428571429 51.328C277.0651428571429 79.6708571428571 253.4948571428572 102.656 224.4022857142858 102.656S171.7211428571429 79.6708571428571 171.7211428571429 51.328S195.3097142857143 0 224.4022857142857 0zM359.7714285714286 22.4914285714286C387.4102857142858 22.4914285714286 409.8102857142857 44.3062857142858 409.8102857142857 71.2137142857143C409.8102857142857 98.1211428571429 387.4102857142857 119.9451428571429 359.7714285714286 119.9451428571429C332.1325714285714 119.9451428571429 309.7325714285714 98.1211428571429 309.7325714285714 71.2137142857143S332.1325714285715 22.4822857142858 359.7714285714286 22.4822857142858zM120.6308571428571 334.6102857142858C154.0845714285714 334.6102857142858 181.2022857142857 361.088 181.2022857142857 393.7371428571429C181.2022857142857 426.3954285714286 154.0845714285714 452.8731428571429 120.6308571428572 452.8731428571429C87.168 452.8731428571429 60.0502857142857 426.3954285714286 60.0502857142857 393.7371428571429C60.0502857142857 361.088 87.1771428571429 334.6102857142858 120.6308571428572 334.6102857142858zM467.2274285714286 245.0468571428572C491.9588571428571 245.0468571428572 512 264.7222857142857 512 288.9874285714286C512 313.2617142857144 491.9588571428571 332.9371428571428 467.2274285714286 332.9371428571428C442.5051428571429 332.9371428571428 422.4548571428571 313.2617142857143 422.4548571428571 288.9874285714286C422.4548571428571 264.7222857142857 442.5051428571429 245.0468571428571 467.2274285714286 245.0468571428571zM270.9394285714286 384.2560000000001A63.872 63.872 0 1 1 270.9394285714286 512A63.872 63.872 0 0 1 270.9394285714286 384.2560000000001z" />
    <glyph glyph-name="re"
      unicode="&#xF12B;"
<<<<<<< HEAD
      horiz-adv-x="512" d="M512 512H0V0H512V512zM514.5901176470587 59.9943529411765C514.5901176470587 25.4192941176471 486.580705882353 -2.5901176470587 452.0056470588236 -2.5901176470587H59.9943529411765A62.5844705882353 62.5844705882353 0 0 0 -2.5901176470588 59.9943529411765V452.0056470588235C-2.5901176470588 486.580705882353 25.4192941176471 514.5901176470588 59.9943529411765 514.5901176470588H452.0056470588236C486.580705882353 514.5901176470588 514.5901176470587 486.580705882353 514.5901176470587 452.0056470588235V59.9943529411765zM452.0056470588236 42.5863529411765C461.6432941176471 42.5863529411765 469.4136470588235 50.3868235294118 469.4136470588235 59.9943529411765V452.0056470588235A17.408 17.408 0 0 1 452.0056470588236 469.4136470588235H59.9943529411765A17.408 17.408 0 0 1 42.5863529411765 452.0056470588235V59.9943529411765C42.5863529411765 50.356705882353 50.3868235294118 42.5863529411765 59.9943529411765 42.5863529411765H452.0056470588236zM197.9331764705883 282.112L72.0414117647059 408.0037647058824L103.9661176470589 439.988705882353L229.8578823529413 314.0668235294118L197.9331764705883 282.1421176470589zM247.5670588235295 264.4329411764706H99.9905882352942V309.6094117647059H202.3905882352942V412.0094117647059H247.5670588235295V264.4329411764706zM313.0729411764707 230.8818823529412L438.964705882353 104.9901176470589L407.04 73.0352941176471L281.1181176470589 198.9270588235294L313.0428235294118 230.8818823529412zM308.585411764706 203.4145882352941V101.0145882352941H263.4089411764707V248.5910588235294H410.985411764706V203.4145882352941H308.585411764706z" />
    <glyph glyph-name="resize"
      unicode="&#xF128;"
=======
>>>>>>> 0c4bd33f403128773a2dc76f64d1a243d55d4b89
      horiz-adv-x="512" d="M512 512H0V0H512V512zM514.5901176470587 59.9943529411765C514.5901176470587 25.4192941176471 486.580705882353 -2.5901176470587 452.0056470588236 -2.5901176470587H59.9943529411765A62.5844705882353 62.5844705882353 0 0 0 -2.5901176470588 59.9943529411765V452.0056470588235C-2.5901176470588 486.580705882353 25.4192941176471 514.5901176470588 59.9943529411765 514.5901176470588H452.0056470588236C486.580705882353 514.5901176470588 514.5901176470587 486.580705882353 514.5901176470587 452.0056470588235V59.9943529411765zM452.0056470588236 42.5863529411765C461.6432941176471 42.5863529411765 469.4136470588235 50.3868235294118 469.4136470588235 59.9943529411765V452.0056470588235A17.408 17.408 0 0 1 452.0056470588236 469.4136470588235H59.9943529411765A17.408 17.408 0 0 1 42.5863529411765 452.0056470588235V59.9943529411765C42.5863529411765 50.356705882353 50.3868235294118 42.5863529411765 59.9943529411765 42.5863529411765H452.0056470588236zM197.9331764705883 282.112L72.0414117647059 408.0037647058824L103.9661176470589 439.988705882353L229.8578823529413 314.0668235294118L197.9331764705883 282.1421176470589zM247.5670588235295 264.4329411764706H99.9905882352942V309.6094117647059H202.3905882352942V412.0094117647059H247.5670588235295V264.4329411764706zM313.0729411764707 230.8818823529412L438.964705882353 104.9901176470589L407.04 73.0352941176471L281.1181176470589 198.9270588235294L313.0428235294118 230.8818823529412zM308.585411764706 203.4145882352941V101.0145882352941H263.4089411764707V248.5910588235294H410.985411764706V203.4145882352941H308.585411764706z" />
    <glyph glyph-name="resize"
      unicode="&#xF12C;"
      horiz-adv-x="512" d="M24.6298947368421 431.3734736842105C24.6298947368421 462.2821052631579 49.6909473684211 487.3701052631579 80.6265263157895 487.3701052631579H431.3734736842105C462.3090526315789 487.3701052631579 487.3701052631579 462.3090526315789 487.3701052631579 431.3734736842105V80.6265263157895C487.3701052631579 49.6909473684211 462.3090526315789 24.6298947368422 431.3734736842105 24.6298947368422H80.6265263157895A55.9966315789474 55.9966315789474 0 0 0 24.6298947368422 80.6265263157895V431.3734736842105zM80.6265263157895 446.949052631579A15.5755789473684 15.5755789473684 0 0 1 65.0509473684211 431.3734736842105V80.6265263157895C65.0509473684211 72.0033684210527 72.0303157894737 65.0509473684211 80.6265263157895 65.0509473684211H431.3734736842105C439.9966315789474 65.0509473684211 446.9490526315789 72.0303157894738 446.9490526315789 80.6265263157895V431.3734736842105A15.5755789473684 15.5755789473684 0 0 1 431.3734736842105 446.949052631579H80.6265263157895zM179.4694736842106 303.9393684210527L91.4054736842106 392.0303157894737L119.9696842105264 420.5945263157895L208.0606315789474 332.5305263157895V395.5873684210527H248.4816842105264V263.5452631578948H116.4395789473685V303.9663157894737H179.4694736842106zM262.629052631579 249.3709473684211H394.6711578947369V208.9498947368421H331.6143157894737L419.7322105263159 120.8589473684211L391.141052631579 92.2947368421052L303.050105263158 180.3587368421052V117.3018947368421H262.629052631579V249.344z" />
    <glyph glyph-name="search"
      unicode="&#xF105;"
      horiz-adv-x="512" d="M217.233627449635 512C97.2793417353493 512 -0.0006582646507 414.4030476190477 -0.0006582646507 293.9855238095238C-0.0006582646507 173.592380952381 97.2793417353493 75.9954285714285 217.233627449635 75.9954285714285C337.2366750686826 75.9954285714285 434.5166750686827 173.5923809523809 434.5166750686827 293.9855238095238C434.5166750686826 414.4030476190477 337.2366750686826 512 217.233627449635 512zM503.0515322115398 9.3622857142857A31.3051428571429 31.3051428571429 0 0 0 458.7757226877303 8.9965714285714L371.930770306778 94.6224761904762A253.7325714285714 253.7325714285714 0 0 1 416.1821988782065 139.0689523809524L502.6614369734446 53.8087619047619C514.9494369734447 41.6670476190477 515.1444845924922 21.7234285714287 503.0515322115398 9.3622857142857zM217.233627449635 451.2914285714286C303.8103893543969 451.2914285714286 374.0031512591588 380.8792380952381 374.0031512591588 293.9855238095238C374.0031512591588 207.1161904761905 303.8103893543969 136.6796190476191 217.233627449635 136.6796190476191C130.6568655448731 136.6796190476191 60.4641036401112 207.1405714285714 60.4641036401112 293.9855238095238C60.4641036401112 380.8792380952381 130.6568655448731 451.2914285714286 217.233627449635 451.2914285714286z" />
    <glyph glyph-name="sensor"
      unicode="&#xF111;"
      horiz-adv-x="512" d="M183.04 100.352A19.2 19.2 0 0 0 209.76 95.488L231.2 64.512A19.2 19.2 0 0 0 226.432 37.888L195.712 16.288A19.2 19.2 0 0 0 173.632 47.7119999999999L188.768 58.336L178.208 73.632A19.2 19.2 0 0 0 183.04 100.352zM25.76 208.96A19.2 19.2 0 0 0 44.96 189.76C44.96 164.256 60.16 138.464 90.592 116.64C120.864 94.944 164.384 78.752 215.136 72.992A19.2 19.2 0 0 0 210.816 34.848C154.976 41.184 104.896 59.168 68.192 85.4399999999999C31.648 111.648 6.56 147.712 6.56 189.76A19.2 19.2 0 0 0 25.76 208.96zM486.24 208.96A19.2 19.2 0 0 0 505.44 189.76C505.44 147.712 480.32 111.648 443.776 85.44C407.1040000000001 59.136 357.024 41.184 301.184 34.848A19.2 19.2 0 0 0 296.832 72.992C347.584 78.752 391.104 94.912 421.408 116.6400000000001C451.808 138.4640000000001 467.04 164.256 467.04 189.7280000000001A19.2 19.2 0 0 0 486.24 208.9280000000001zM256 374.944A57.568 57.568 0 1 1 256 259.808A57.568 57.568 0 0 1 256 374.944zM160 317.376A95.968 95.968 0 1 0 351.9360000000001 317.376A95.968 95.968 0 0 0 160.0320000000001 317.376zM256 508.096A19.2 19.2 0 0 0 275.2 488.896V463.04A19.2 19.2 0 0 0 236.8 463.04V488.896A19.2 19.2 0 0 0 256 508.096zM61.664 317.376A194.304 194.304 0 1 0 430.688 232.256A19.2 19.2 0 0 0 396.192 249.088A155.904 155.904 0 1 1 337.7920000000001 184.608A19.2 19.2 0 0 0 357.9520000000001 151.968A194.304 194.304 0 0 0 61.6960000000001 317.408z" />
    <glyph glyph-name="sites"
      unicode="&#xF10D;"
      horiz-adv-x="360.2962962962963" d="M180.1576296296297 313.1543703703704A59.7333333333333 59.7333333333333 0 0 1 239.7961481481481 372.8118518518519A59.7333333333333 59.7333333333333 0 0 1 180.1386666666667 432.4693333333334A59.7333333333333 59.7333333333333 0 0 1 120.5191111111111 372.8118518518519A59.7333333333333 59.7333333333333 0 0 1 180.1765925925926 313.1543703703704zM180.1576296296297 392.6850370370371A19.9111111111111 19.9111111111111 0 0 0 180.1576296296297 352.9197037037037A19.9111111111111 19.9111111111111 0 0 0 180.1576296296297 392.6850370370371zM303.5306666666667 175.3694814814815A19.8921481481481 19.8921481481481 0 0 1 285.3072592592593 140.0414814814815C306.925037037037 128.8722962962963 319.3457777777778 115.1431111111111 319.3457777777778 102.381037037037C319.3457777777778 74.221037037037 259.8020740740741 42.7235555555555 180.1576296296297 42.7235555555555C100.4752592592593 42.7235555555555 40.9694814814815 74.2020740740741 40.9694814814815 102.381037037037C40.9694814814815 115.1431111111111 53.3712592592593 128.8722962962962 75.008 140.0414814814815A19.8921481481481 19.8921481481481 0 1 1 56.7656296296297 175.3884444444444C20.9256296296297 156.8805925925926 1.1851851851852 130.9582222222222 1.1851851851852 102.381037037037C1.1851851851852 44.1647407407407 82.3087407407408 2.9582222222222 180.1576296296297 2.9582222222222C277.8548148148149 2.9582222222222 359.1111111111111 44.1078518518519 359.1111111111111 102.3810370370371C359.1111111111111 130.9582222222223 339.3896296296296 156.8805925925926 303.5496296296296 175.3884444444445zM54.4331851851852 313.0785185185186L162.2945185185185 93.6011851851852A19.8921481481481 19.8921481481481 0 0 1 198.0017777777777 93.6011851851852L305.9768888888888 313.3250370370371C314.8515555555554 332.0035555555555 319.3457777777777 352.0094814814815 319.3457777777777 372.8118518518519C319.3457777777777 449.554962962963 256.9007407407406 512 180.1576296296295 512C103.3955555555555 512 40.9694814814814 449.554962962963 40.9694814814814 372.8118518518519A137.746962962963 137.746962962963 0 0 1 54.4331851851851 313.0785185185186zM180.1576296296296 472.2346666666667A99.5555555555556 99.5555555555556 0 0 0 279.5804444444444 372.8118518518519C279.5804444444444 358.0207407407408 276.3946666666667 343.7605925925926 270.0989629629629 330.4865185185186L180.1576296296296 147.4560000000001L90.1973333333333 330.4865185185186C83.9016296296296 343.7605925925926 80.7158518518518 358.0017777777779 80.7158518518518 372.8118518518519A99.5365925925926 99.5365925925926 0 0 0 180.1576296296296 472.2346666666667z" />
    <glyph glyph-name="unpin"
      unicode="&#xF12A;"
      horiz-adv-x="537.6" d="M332.48 127.0272L140.48 319.0272C125.12 334.3872 102.08 339.5072 81.6 329.2672L25.28 301.1072000000001C17.6 298.5472 12.48 290.8672000000001 12.48 283.1872C12.48 275.5072 12.48 267.8272000000001 20.16 260.1472L127.68 152.6272L48.32 75.8272C38.08 65.5872 38.08 50.2272 48.32 39.9872C56 32.3072 61.12 29.7472 68.8 29.7472C76.48 29.7472 81.6 32.3072000000001 86.72 37.4272000000001L163.52 116.7872000000001L271.04 9.2672C276.16 4.1472000000001 281.2800000000001 1.5872 288.96 1.5872H294.08C301.76 1.5872 309.44 9.2672 312 14.3872L340.16 70.7072C352.96 88.6272 347.84 111.6672 332.48 127.0272zM283.84 68.1471999999999L181.44 170.5472L79.04 272.9472L102.08 285.7472L294.08 93.7472L283.84 68.1471999999999zM511.68 385.5872L399.04 498.2272C381.12 516.1472 350.4 516.1472 329.92 500.7872L189.12 380.4672L137.9199999999999 431.6672C127.6799999999999 441.9072 112.3199999999999 441.9072 102.0799999999999 431.6672C91.8399999999999 421.4272 91.8399999999999 406.0672 102.0799999999999 395.8272L409.2799999999999 88.6272C414.3999999999999 83.5072 422.08 80.9472 427.2 80.9472C432.32 80.9472 440 83.5072 445.12 88.6272C455.3599999999999 98.8671999999999 455.3599999999999 114.2272 445.12 124.4672L393.92 175.6672L511.68 316.4672C529.5999999999999 336.9472 529.5999999999999 367.6672 511.68 385.5872zM358.08 211.5072L224.96 344.6272L363.2 459.8272L475.84 347.1872L358.0800000000001 211.5072z" />
    <glyph glyph-name="zones"
      unicode="&#xF122;"
      horiz-adv-x="556.5217391304348" d="M31.8330434782609 432.4619130434783A23.7746086956522 23.7746086956522 0 0 0 12.0431304347827 455.880347826087V485.9547826086957C12.0431304347827 500.0904347826087 23.7746086956522 509.7739130434783 36.040347826087 509.7739130434783H67.7398260869566C78.4918260869566 509.7739130434783 88.8431304347827 502.3165217391305 91.2250434782609 490.9634782608696H238.9036521739131A24.0417391304348 24.0417391304348 0 0 0 262.4111304347827 509.7739130434783H294.1106086956522C306.376347826087 509.7739130434783 318.1078260869566 500.0904347826087 318.1078260869566 485.9547826086957V472.4646956521739L512.4229565217391 294.8452173913044H520.4813913043478C532.7248695652173 294.8452173913044 544.4786086956522 285.1617391304348 544.4786086956522 271.0483478260869V240.9516521739131C544.4786086956522 228.4855652173913 535.2848695652174 219.447652173913 524.6664347826086 217.5332173913043V79.5380869565217C535.2848695652174 77.6236521739131 544.4786086956522 68.608 544.4786086956522 56.1196521739131V26.0229565217392C544.4786086956522 11.9095652173913 532.7471304347825 2.2038260869566 520.4813913043478 2.2038260869566H488.7819130434782A24.0417391304348 24.0417391304348 0 0 0 465.2966956521739 21.0365217391305H317.6180869565217A24.0417391304348 24.0417391304348 0 0 0 294.1106086956521 2.2260869565218H262.4111304347827A24.0417391304348 24.0417391304348 0 0 0 238.9259130434783 21.0365217391305H91.2250434782609A24.0417391304348 24.0417391304348 0 0 0 67.7398260869566 2.2260869565218H36.040347826087C23.7968695652174 2.2260869565218 12.0431304347827 11.9095652173913 12.0431304347827 26.0229565217392V56.1196521739131C12.0431304347827 68.5857391304348 21.2146086956522 77.6236521739131 31.8330434782609 79.5380869565217V217.5554782608696A23.7746086956522 23.7746086956522 0 0 0 12.0431304347827 240.9516521739131V271.048347826087C12.0431304347827 283.5144347826087 21.2146086956522 292.552347826087 31.8330434782609 294.4667826086957V432.4619130434783zM71.9026086956522 432.4619130434783V294.4890434782609C82.5210434782609 292.5746086956522 91.7370434782609 283.5589565217391 91.7370434782609 271.0483478260869V240.9516521739131C91.7370434782609 228.4410434782609 82.5210434782609 219.4253913043478 71.9026086956522 217.5332173913043V79.5380869565217C81.0518260869566 77.9130434782609 89.1547826086957 70.9899130434783 91.2250434782609 61.1060869565218H238.9036521739131A24.0417391304348 24.0417391304348 0 0 0 262.3888695652175 79.9165217391304H294.0883478260871C304.8626086956523 79.9165217391304 315.2139130434784 72.4591304347826 317.5958260869566 61.1060869565218H465.2744347826088C467.344695652174 70.9899130434783 475.4253913043479 77.9130434782609 484.5746086956523 79.5380869565217V217.5332173913043A23.7968695652174 23.7968695652174 0 0 0 464.7624347826088 240.9516521739131V271.048347826087C464.7624347826088 275.0107826086957 465.6751304347827 278.6170434782609 467.3001739130436 281.7780869565218L301.5680000000001 433.2855652173913A23.9749565217391 23.9749565217391 0 0 0 294.0883478260871 432.0834782608696H262.4111304347827A24.0417391304348 24.0417391304348 0 0 0 238.9259130434783 450.8939130434783H91.2250434782609A23.9526956521739 23.9526956521739 0 0 0 71.9026086956522 432.4396521739131z" />
    <glyph glyph-name="zones_arrow"
      unicode="&#xF10B;"
      horiz-adv-x="853.3333333333333" d="M356.6145818140264 28.16C375.8999151473597 9.3866666666667 401.3292484806931 0 426.7585818140264 0C452.2732484806931 0 477.7025818140264 9.3866666666667 496.9879151473597 28.16L822.6199151473597 344.32C860.4225818140263 381.0986666666667 864.6039151473598 442.0266666666667 828.081248480693 480.0853333333333A101.632 101.632 0 0 1 684.2092484806931 483.4986666666667L474.9719151473597 280.9173333333333A69.9733333333333 69.9733333333333 0 0 0 377.9479151473597 280.9173333333333L169.3932484806931 483.584A101.0346666666667 101.0346666666667 0 0 1 25.5212484806931 480.1706666666666C-11.0014181859736 442.112 -7.5880848526402 381.1840000000001 30.9825818140264 344.4906666666667L356.6999151473597 27.9893333333334z" />
  </font>
</defs>
</svg>
